<?xml version="1.0" encoding="utf-8"?>
<!-- Generator: Adobe Illustrator 26.0.0, SVG Export Plug-In . SVG Version: 6.00 Build 0)  -->
<svg version="1.1" id="Layer_1" xmlns="http://www.w3.org/2000/svg" xmlns:xlink="http://www.w3.org/1999/xlink" x="0px" y="0px"
	 viewBox="0 0 845.22 821.74" style="enable-background:new 0 0 845.22 821.74;" xml:space="preserve">
<style type="text/css">
	.st0{clip-path:url(#SVGID_00000165922928154234587300000017107080613698702005_);fill:#10942A;}
</style>
<g>
	<g>
		<defs>
			<path id="SVGID_1_" d="M11.34,236.46h70.75v75.84H11.34V236.46z M116.06,378.4h113.2v121.35h-113.2V378.4z M359.97,304.04h179.06
				v207.83H345.16V316.95l-86.58-89.51H129.92V74.25h142.9v139.69L359.97,304.04z M345.16,9.37h114.63
				c102.32,0,195.29,44.82,262.65,117.03C789.79,198.6,831.6,298.27,831.6,407.96c0,109.69-41.81,209.35-109.17,281.56
				c-67.36,72.21-160.33,117.03-262.65,117.03H345.16V663.21h114.63c65.41,0,124.92-28.74,168.11-75.04
				c43.19-46.3,70-110.1,70-180.21c0-70.12-26.81-133.92-70-180.21c-43.19-46.3-102.7-75.04-168.11-75.04H345.16V9.37z"/>
		</defs>
		<clipPath id="SVGID_00000041293979828887250470000014321607776138976658_">
			<use xlink:href="#SVGID_1_"  style="overflow:visible;"/>
		</clipPath>
		
			<rect x="11.34" y="9.37" style="clip-path:url(#SVGID_00000041293979828887250470000014321607776138976658_);fill:#10942A;" width="820.27" height="797.18"/>
	</g>
</g>
</svg>
