<svg id="Layer_1" data-name="Layer 1" xmlns="http://www.w3.org/2000/svg" xmlns:xlink="http://www.w3.org/1999/xlink" viewBox="0 0 812 1119"><defs><style>.cls-1,.cls-12{fill:none;}.cls-2{fill:#0052ff;}.cls-3{fill:#fff;}.cls-4{fill:#f3ba2f;}.cls-5{fill:#149f49;}.cls-11,.cls-5{fill-rule:evenodd;}.cls-6{fill:#73c692;}.cls-7{fill:#0da8ff;}.cls-8{clip-path:url(#clip-path);}.cls-9{fill:#10942a;}.cls-10,.cls-11{fill:#ff007a;}.cls-12{stroke:#000;stroke-width:3px;}.cls-12,.cls-13,.cls-14{stroke-miterlimit:10;}.cls-13{fill:#457fff;stroke:#fff;}.cls-14{fill:#1b54f8;stroke:#1b54f8;stroke-width:0.25px;}</style><clipPath id="clip-path"><path class="cls-1" d="M273.05,487.81h21.43v23H273.05Zm31.73,43h34.29v36.77H304.78Zm73.9-22.53h54.25v63H374.19V512.19L348,485.07H309V438.66h43.29V481ZM374.19,419h34.73c31,0,59.17,13.58,79.58,35.46a126.54,126.54,0,0,1,0,170.62c-20.41,21.88-48.58,35.46-79.58,35.46H374.19V617.11h34.73c19.82,0,37.85-8.71,50.94-22.74a80.88,80.88,0,0,0,0-109.2c-13.09-14-31.12-22.74-50.94-22.74H374.19Z"/></clipPath></defs><circle class="cls-2" cx="99.84" cy="1029.66" r="52.66"/><path class="cls-3" d="M100.29,1014.22a13.4,13.4,0,0,1,13,9.51h12.49c-2.26-12.16-12.29-20.4-25.37-20.4-14.86,0-26.47,11.28-26.47,26.38S85.24,1056,100.39,1056c12.79,0,23-8.23,25.28-20.49h-12.4a13.31,13.31,0,0,1-12.89,9.61c-8.56,0-14.56-6.57-14.56-15.4S91.73,1014.22,100.29,1014.22Z"/><path class="cls-4" d="M330,1026.55l20.12-20.12,20.14,20.13,11.7-11.71L350.12,983l-31.84,31.84Z"/><path class="cls-4" d="M298.29,1034.82,310,1023.11l11.71,11.71L310,1046.53Z"/><path class="cls-4" d="M330,1043.09l20.12,20.12,20.14-20.13,11.71,11.7-31.84,31.84-31.85-31.82Z"/><path class="cls-4" d="M378.51,1034.82l11.7-11.71,11.72,11.7-11.72,11.72Z"/><path class="cls-4" d="M362,1034.81l-11.88-11.88-8.78,8.78-1,1-2.08,2.08,11.87,11.86L362,1034.82Z"/><path class="cls-5" d="M476.64,1027.08a38.15,38.15,0,0,0-5.45-.2c-2.69,0-5.38,0-8.06,0q0,7.31,0,14.6c3.23,0,6.45,0,9.67,0a14.4,14.4,0,0,0,5.1-.55,7,7,0,0,0,4.44-5,7.68,7.68,0,0,0-.92-5.7,7.38,7.38,0,0,0-4.78-3.09Z"/><path class="cls-5" d="M470.49,981.51A51.51,51.51,0,1,0,522,1033,51.51,51.51,0,0,0,470.49,981.51ZM449,1042a7.22,7.22,0,0,0,6.5-4.17,7.75,7.75,0,0,0,.66-3.71,7.17,7.17,0,0,0-3.17-6.31,7.6,7.6,0,0,0-4-1.25c0-1.94,0-3.87,0-5.8a6.88,6.88,0,0,0,5.31-2.32,7.39,7.39,0,0,0,1.84-5.31,7.18,7.18,0,0,0-7.14-6.58c0-2.13,0-4.24,0-6.35q13.74,0,27.48,0a16.3,16.3,0,0,1,10,4,11.69,11.69,0,0,1,3.49,6.42c.4,2.94.13,6.14-1.65,8.62a12,12,0,0,1-4.7,4,12.46,12.46,0,0,1,6.65,18,13.41,13.41,0,0,1-6.58,5.65,22,22,0,0,1-8.64,1.5H449c0-2.16,0-4.3,0-6.44ZM492,1065.78c-5.83.07-11.68,0-17.54,0-8.45,0-16.91,0-25.37,0-.05-2.29-.05-4.6,0-6.91,8.84-.07,17.68,0,26.54,0,5.45,0,10.92,0,16.37,0,0,2.31,0,4.62,0,6.91Z"/><path class="cls-5" d="M471.87,1020.55a14.72,14.72,0,0,0,4.3-.31,6.47,6.47,0,0,0,4.72-5,6.87,6.87,0,0,0-1.44-5.73,7.68,7.68,0,0,0-5.95-2.36H463.1c0,4.47,0,8.92,0,13.39Z"/><path class="cls-3" d="M475.11,1048.47a21.27,21.27,0,0,0,8.64-1.5,13.56,13.56,0,0,0,6.58-5.65,12.91,12.91,0,0,0,.2-12.18,12.78,12.78,0,0,0-6.85-5.84,12.14,12.14,0,0,0,4.71-4c1.77-2.47,2-5.68,1.64-8.62a11.63,11.63,0,0,0-3.49-6.42,16.35,16.35,0,0,0-10-4c-9.17,0-18.32,0-27.48,0,0,2.11,0,4.22,0,6.35a7.38,7.38,0,0,1,3.39.86,7.25,7.25,0,0,1,3.76,5.72,7.4,7.4,0,0,1-1.85,5.31,6.91,6.91,0,0,1-5.31,2.32c0,1.93,0,3.86,0,5.8a7.66,7.66,0,0,1,4,1.25,7.17,7.17,0,0,1,3.17,6.31,7.75,7.75,0,0,1-.66,3.71A7.21,7.21,0,0,1,449,1042c0,2.14,0,4.29,0,6.43Zm7.23-12.6a7,7,0,0,1-4.44,5,14.38,14.38,0,0,1-5.1.55c-3.23,0-6.45,0-9.67,0q0-7.31,0-14.6c2.68.05,5.37,0,8.06,0a38.15,38.15,0,0,1,5.45.2,7.36,7.36,0,0,1,4.77,3.09A7.64,7.64,0,0,1,482.34,1035.87Zm-19.24-28.71h10.4a7.68,7.68,0,0,1,5.95,2.36,6.87,6.87,0,0,1,1.44,5.73,6.47,6.47,0,0,1-4.72,5,14.69,14.69,0,0,1-4.3.31H463.1c0-4.47,0-8.92,0-13.39Z"/><path class="cls-6" d="M475.57,1058.85c-8.85,0-17.69,0-26.53,0q-.09,3.47,0,6.91c8.45.07,16.91,0,25.37,0,5.85,0,11.7,0,17.54,0,.05-2.29.05-4.6,0-6.91-5.46-.07-10.92,0-16.38,0Z"/><path id="_0da8ffff" data-name="#0da8ffff" class="cls-7" d="M594.67,982.7a53.07,53.07,0,0,1,53.22,34.88,52.09,52.09,0,0,1,3.11,17.56v22.19a11.23,11.23,0,0,1-.2,2.72,7.49,7.49,0,0,1-4.19,5.15,8.08,8.08,0,0,1-4.71.52,7.58,7.58,0,0,1-6-7.23c0-6.88,0-13.76,0-20.66,0-1.95.07-4-1-5.78a7.57,7.57,0,0,0-14.13,3.56c0,7,0,14,0,21a13.07,13.07,0,0,1-.32,3.9,7.56,7.56,0,0,1-13.81,1.6c-1.11-1.8-1-4-1-6,0-6.93,0-13.89,0-20.82a7.56,7.56,0,0,0-15.12.35v20.22c0,1.7.17,3.45-.47,5.06a7.59,7.59,0,0,1-14.23,0,12.49,12.49,0,0,1-.44-4.56c0-7,0-14,0-20.94a7.56,7.56,0,0,0-14.11-3.58,7.75,7.75,0,0,0-1,3.8v22.67a7.53,7.53,0,0,1-2.69,5.79,7.62,7.62,0,0,1-9.39.3,7.3,7.3,0,0,1-3.11-6v-23a53.05,53.05,0,0,1,49.67-52.68Z"/><g class="cls-8"><rect class="cls-9" x="273.05" y="419" width="248.53" height="241.54"/></g><g id="Layer_1-2" data-name="Layer_1"><g id="_2187381323856" data-name=" 2187381323856"><rect x="673.39" y="982" width="91" height="91"/><path class="cls-3" d="M726.64,1019h-14.7a1.13,1.13,0,0,0-1.13,1.12v14.71a1.14,1.14,0,0,0,1.13,1.13h14.7a1.14,1.14,0,0,0,1.13-1.13v-14.71A1.13,1.13,0,0,0,726.64,1019Z"/><path class="cls-3" d="M709.64,1002h-14.7a1.14,1.14,0,0,0-1.13,1.13v14.71a1.14,1.14,0,0,0,1.13,1.13h14.7a1.14,1.14,0,0,0,1.13-1.13v-14.71A1.14,1.14,0,0,0,709.64,1002Z"/><path class="cls-3" d="M743.64,1002H728.93a1.13,1.13,0,0,0-1.12,1.13v14.71a1.13,1.13,0,0,0,1.12,1.13h14.71a1.14,1.14,0,0,0,1.13-1.13v-14.71A1.14,1.14,0,0,0,743.64,1002Z"/><path class="cls-3" d="M709.64,1035.94h-14.7a1.14,1.14,0,0,0-1.13,1.13v14.71a1.14,1.14,0,0,0,1.13,1.13h14.7a1.14,1.14,0,0,0,1.13-1.13v-14.71A1.14,1.14,0,0,0,709.64,1035.94Z"/><path class="cls-3" d="M743.64,1035.94H728.93a1.13,1.13,0,0,0-1.12,1.13v14.71a1.13,1.13,0,0,0,1.12,1.13h14.71a1.14,1.14,0,0,0,1.13-1.13v-14.71A1.14,1.14,0,0,0,743.64,1035.94Z"/></g></g><path class="cls-10" d="M208.82,981.44c-1.31-.18-1.37-.24-.75-.31a21,21,0,0,1,5.85.5c4.48,1.06,8.53,3.8,12.82,8.59l1.12,1.31,1.62-.25a34.71,34.71,0,0,1,19.92,2.49,25.88,25.88,0,0,1,4.48,2.61,6,6,0,0,1,.43,1.74c.44,2.93.25,5.11-.68,6.79a1.82,1.82,0,0,0-.19,2,1.88,1.88,0,0,0,1.68,1.05c1.5,0,3.05-2.36,3.8-5.66l.31-1.31.56.63c3.17,3.54,5.66,8.46,6,11.95l.12.93-.56-.81a10.39,10.39,0,0,0-3-3.17c-2.11-1.43-4.35-1.87-10.27-2.18-5.35-.31-8.4-.75-11.38-1.74-5.11-1.68-7.72-3.86-13.76-11.89a55.86,55.86,0,0,0-6-7.09A21.17,21.17,0,0,0,208.82,981.44Z"/><path class="cls-10" d="M255.18,989.35A13.6,13.6,0,0,1,256.3,984a4.46,4.46,0,0,1,.56-1.06c.07,0-.06.43-.24.93a11.89,11.89,0,0,0-.25,5.48c.43,2.8.62,3.17,3.61,6.22,1.36,1.43,3,3.24,3.61,4l1.05,1.37-1.05-1a37.81,37.81,0,0,0-5-3.92c-.44-.25-.5-.25-.81.06s-.31.62-.31,2.43a13.42,13.42,0,0,1-1.37,6.34c-.5.94-.56.75-.13-.31.31-.81.38-1.18.38-3.86,0-5.41-.63-6.72-4.42-8.9-.94-.56-2.55-1.36-3.49-1.8a15.39,15.39,0,0,1-1.68-.81,27.52,27.52,0,0,1,5.23,1.56c2.18.87,2.55.93,2.8.87S255.12,990.9,255.18,989.35Z"/><path class="cls-10" d="M211.37,998.62a22,22,0,0,1-3.92-13.38l.13-1.31.62.13a14.33,14.33,0,0,1,4,1.49c2.49,1.5,3.61,3.55,4.67,8.65.31,1.5.75,3.24.93,3.8a22.83,22.83,0,0,0,2.49,4.48c.69,1,.25,1.49-1.3,1.37C216.6,1003.6,213.43,1001.42,211.37,998.62Z"/><path class="cls-10" d="M252,1025.69c-12.32-5-16.68-9.27-16.68-16.55,0-1.06.06-1.93.06-1.93a9.85,9.85,0,0,1,1.06.81c2.49,2,5.29,2.86,13.07,4a53.66,53.66,0,0,1,9.52,2c7.53,2.49,12.2,7.59,13.32,14.5a25.46,25.46,0,0,1-.37,7.78c-.44,1.56-1.68,4.42-2,4.48-.07,0-.19-.31-.19-.81a10.15,10.15,0,0,0-3.61-7C263.59,1030.67,260.22,1029,252,1025.69Z"/><path class="cls-10" d="M243.3,1027.74a16,16,0,0,0-.62-2.61l-.32-.93.56.68a11.07,11.07,0,0,1,2,3.61,7.88,7.88,0,0,1,.43,3.49,8,8,0,0,1-.43,3.36,11.34,11.34,0,0,1-2.62,4.17c-2.24,2.3-5.16,3.54-9.33,4.1-.75.07-2.87.25-4.73.38a36.39,36.39,0,0,0-10.58,1.74c-.38.12-.75.25-.81.19s1.8-1.25,3.36-2c2.18-1.05,4.42-1.61,9.33-2.48a45.39,45.39,0,0,0,5.54-1.12C241.24,1038.39,244.29,1033.59,243.3,1027.74Z"/><path class="cls-10" d="M249,1037.76a14.51,14.51,0,0,1-1.12-10.08c.13-.31.25-.62.37-.62a2.72,2.72,0,0,1,.88.44c.74.49,2.3,1.36,6.28,3.54,5,2.74,7.9,4.86,9.9,7.28a15.38,15.38,0,0,1,3.29,7.53,24.61,24.61,0,0,1-.31,7.41,18.36,18.36,0,0,1-9,12,9.27,9.27,0,0,1-1.31.62,5.22,5.22,0,0,1,.56-1.37,12.31,12.31,0,0,0,.56-9.64c-.68-2.12-2.11-4.67-5-9C250.64,1040.88,249.83,1039.57,249,1037.76Z"/><path class="cls-10" d="M202.6,1056.81a33.8,33.8,0,0,1,15.49-7.47,23.15,23.15,0,0,1,8,.31,13.84,13.84,0,0,1,7.84,5c1.5,2.24,2.18,4.17,2.87,8.46.24,1.68.56,3.43.62,3.8a8.37,8.37,0,0,0,2.74,4.92c1.93,1.43,5.29,1.49,8.58.25a4.4,4.4,0,0,1,1.06-.32c.13.13-1.55,1.25-2.67,1.81a8.81,8.81,0,0,1-4.48,1.06c-3,0-5.54-1.56-7.6-4.67a36.49,36.49,0,0,1-2.05-4.11c-2.18-5-3.3-6.53-5.85-8.21a7.69,7.69,0,0,0-7.28-.69,4.69,4.69,0,0,0-1.62,7.28,6.34,6.34,0,0,0,3.55,1.87,3.79,3.79,0,0,0,4.29-3.79,3,3,0,0,0-2.05-3c-2-.88-4.17.12-4.11,2a1.7,1.7,0,0,0,1.18,1.68c.5.25.5.25.13.19-1.81-.38-2.24-2.62-.81-4,1.74-1.74,5.41-1,6.66,1.43a6.48,6.48,0,0,1,.12,4.23,5.83,5.83,0,0,1-7.09,3.37c-2.06-.56-2.93-1.12-5.42-3.68-4.35-4.48-6-5.35-12.26-6.28l-1.18-.19Z"/><path class="cls-11" d="M169.86,956.68c14.5,17.61,36.85,45,38,46.48.93,1.25.56,2.43-1,3.3a9.5,9.5,0,0,1-3.55,1,4.47,4.47,0,0,1-3-1.31c-.56-.56-3-4.11-8.47-12.63-4.17-6.54-7.71-11.95-7.78-12-.25-.13-.25-.13,7.35,13.44,4.79,8.52,6.34,11.57,6.34,11.95,0,.81-.24,1.24-1.24,2.36-1.68,1.87-2.43,4-3,8.4-.62,4.92-2.3,8.4-7.09,14.32-2.8,3.48-3.24,4.1-3.92,5.54a10.56,10.56,0,0,0-1.25,5,15.73,15.73,0,0,0,.81,6.1,20.75,20.75,0,0,0,3,5.85c1.43,2.24,2.3,3.92,2.3,4.54s.13.5,2.37,0c5.35-1.24,9.77-3.36,12.19-6a5.62,5.62,0,0,0,1.87-4.73,5,5,0,0,0-.44-2.61c-.62-1.37-1.8-2.49-4.35-4.23-3.36-2.31-4.79-4.17-5.17-6.66-.31-2.12.07-3.55,1.93-7.47a22.33,22.33,0,0,0,2.74-9.83c.19-2.62.5-3.68,1.25-4.48s1.49-1.19,3.42-1.44c3.17-.43,5.23-1.24,6.84-2.8a5.8,5.8,0,0,0,2.12-4.54l.06-1.43-.81-.87c-2.92-3.36-43.43-47.92-43.62-47.92S168.68,955.18,169.86,956.68ZM189,1045.17a2.57,2.57,0,0,0-.81-3.42c-1.06-.69-2.68-.38-2.68.56a.64.64,0,0,0,.5.62c.56.31.62.62.19,1.31s-.44,1.3.12,1.74A1.79,1.79,0,0,0,189,1045.17Z"/><path class="cls-11" d="M214.17,1012.44a5.52,5.52,0,0,0-3.36,3.67,5.4,5.4,0,0,0,.31,3.36c.69.87,1.31,1.12,3,1.12,3.43,0,6.35-1.5,6.66-3.3.31-1.49-1-3.55-2.8-4.48A6.24,6.24,0,0,0,214.17,1012.44Zm4,3.11a1.41,1.41,0,0,0-.63-2.12c-1.68-1.06-4.23-.19-4.23,1.43,0,.81,1.31,1.68,2.55,1.68A3.45,3.45,0,0,0,218.16,1015.55Z"/><line class="cls-12" x1="350.12" y1="945" x2="350.12" y2="685.85"/><path d="M361.4,686.41a11.28,11.28,0,1,0-11.28,11.28A11.28,11.28,0,0,0,361.4,686.41Z"/><polyline class="cls-12" points="99.84 947 99.84 802.54 306 802.54 306 739.46 306 724.59"/><path d="M317.28,725.15A11.28,11.28,0,1,0,306,736.43,11.28,11.28,0,0,0,317.28,725.15Z"/><polyline class="cls-12" points="220.59 947.48 220.59 823.04 225.56 823.04 328.71 823.04 328.71 704.63"/><path d="M340,705.19a11.28,11.28,0,1,0-11.28,11.28A11.28,11.28,0,0,0,340,705.19Z"/><line class="cls-12" x1="467.99" y1="947" x2="467.99" y2="683.43"/><circle cx="467.99" cy="684" r="11.28" transform="translate(-226.13 231.16) rotate(-22.5)"/><polyline class="cls-12" points="718.27 943 718.27 799.52 512.11 799.52 512.11 736.88 512.11 722.17"/><path d="M523.39,722.74A11.28,11.28,0,1,0,512.11,734,11.28,11.28,0,0,0,523.39,722.74Z"/><polyline class="cls-12" points="597.53 945.07 597.53 820.63 592.55 820.63 489.4 820.63 489.4 702.22"/><path d="M500.68,702.78a11.28,11.28,0,1,0-11.28,11.28A11.28,11.28,0,0,0,500.68,702.78Z"/><line class="cls-12" x1="478.41" y1="131" x2="478.41" y2="393.6"/><path d="M467.13,393a11.28,11.28,0,1,0,11.28-11.28A11.29,11.29,0,0,0,467.13,393Z"/><polyline class="cls-12" points="728.69 132.45 728.69 276.91 522.53 276.91 522.53 339.98 522.53 354.86"/><path d="M511.26,354.3A11.28,11.28,0,1,0,522.54,343,11.28,11.28,0,0,0,511.26,354.3Z"/><polyline class="cls-12" points="607.95 131.97 607.95 256.4 602.97 256.4 499.82 256.4 499.82 374.82"/><path d="M488.54,374.25A11.28,11.28,0,1,0,499.82,363,11.29,11.29,0,0,0,488.54,374.25Z"/><line class="cls-12" x1="360.54" y1="132.45" x2="360.54" y2="396.01"/><path d="M349.27,395.45a11.28,11.28,0,1,0,11.27-11.28A11.28,11.28,0,0,0,349.27,395.45Z"/><polyline class="cls-12" points="110.27 136.45 110.27 279.92 316.42 279.92 316.42 342.57 316.42 357.27"/><path d="M305.14,356.71a11.28,11.28,0,1,0,11.28-11.28A11.28,11.28,0,0,0,305.14,356.71Z"/><polyline class="cls-12" points="231.01 134.38 231.01 258.81 235.99 258.81 339.13 258.81 339.13 377.23"/><path d="M327.85,376.67a11.28,11.28,0,1,0,11.28-11.28A11.29,11.29,0,0,0,327.85,376.67Z"/><circle class="cls-13" cx="100" cy="948" r="5.5"/><circle class="cls-13" cx="220" cy="947" r="5.5"/><circle class="cls-13" cx="350" cy="948" r="5.5"/><circle class="cls-13" cx="468" cy="947" r="5.5"/><circle class="cls-13" cx="597" cy="948" r="5.5"/><circle class="cls-13" cx="718" cy="948" r="5.5"/><g id="Smart_Contracts_Optimization" data-name="Smart Contracts Optimization"><g id="Group"><path id="Shape" class="cls-14" d="M270,85.14V32.72a10.48,10.48,0,0,0-10.48-10.48H203.78a10.49,10.49,0,0,0-10.64,10.33v78.77a10.48,10.48,0,0,0,10.48,10.48h28.06l-2.88,5.24h-25A15.72,15.72,0,0,1,187.9,111.5V32.72A15.72,15.72,0,0,1,203.62,17h55.75a15.73,15.73,0,0,1,15.88,15.57V85.14ZM238.77,40H202.56a.21.21,0,0,1-.11,0c-2.49-2.25-.94-5.06,1.28-5.06h36.21a.15.15,0,0,1,.11,0c2.49,2.24.94,5.06-1.28,5.06ZM232,48.81H202.56a.15.15,0,0,1-.11,0c-2.49-2.24-.94-5.06,1.28-5.06h29.41a.21.21,0,0,1,.11,0c2.49,2.25.94,5.06-1.27,5.06ZM259.11,40h-8a.21.21,0,0,1-.1,0c-2.5-2.25-.94-5.06,1.27-5.06h7.94a.15.15,0,0,1,.11,0c2.5,2.24.94,5.06-1.27,5.06ZM238.77,81.89h-35c-2.23,0-3.79-2.85-1.23-5.11h36.27c2.23,0,3.79,2.85,1.23,5.11Zm20.34,0h-6.78c-2.23,0-3.79-2.85-1.23-5.11h8c2.22,0,3.79,2.85,1.23,5.11Zm0-33.09h-8a.21.21,0,0,1-.1,0c-2.5-2.25-.94-5.06,1.27-5.06h7.94a.15.15,0,0,1,.11,0c2.5,2.24.94,5.06-1.27,5.06ZM238.77,60.68H202.56a.21.21,0,0,1-.11,0c-2.49-2.25-.94-5.06,1.28-5.06h36.21a.15.15,0,0,1,.11,0c2.49,2.24.94,5.06-1.28,5.06ZM232,69.52H202.56a.21.21,0,0,1-.11,0c-2.49-2.25-.94-5.06,1.28-5.06H232c2.22,0,3.79,2.84,1.23,5.09H232Zm27.13-8.84h-8a.21.21,0,0,1-.1,0c-2.5-2.25-.94-5.06,1.27-5.06h7.94a.15.15,0,0,1,.11,0c2.5,2.24.94,5.06-1.27,5.06Zm0,8.84h-8a.21.21,0,0,1-.1,0c-2.5-2.25-.94-5.06,1.27-5.06h6.78c2.22,0,3.79,2.84,1.23,5.09h-1.23Zm-55.91,39c-2.39-4.84-2.72-9.33-.92-12.23a7,7,0,0,1,6.18-3.22,5.06,5.06,0,0,1,4.39,2.17c1.55,2.27,1.38,5.92.78,9.09,1.52-.93,2.13-.67,2.62-.46a2.12,2.12,0,0,1,1.28,1.75,7,7,0,0,1,3.65-1.56,2.52,2.52,0,0,1,2.2,1.19,3.62,3.62,0,0,1,.33,2.48h5.6c1.84,1.62.72,3.67-.88,3.67h-7.25a1.75,1.75,0,0,1-1.88-1.6,1.69,1.69,0,0,1,.26-1v-.13a26.56,26.56,0,0,0-2.61,2.24,1.81,1.81,0,0,1-3.09-1.35v-.89c-.73.63-1.57,1.42-2.34,2.19a1.74,1.74,0,0,1-2.27.26,1.87,1.87,0,0,1-.72-2.2c1.35-3.64,2.62-9.63,1.28-11.6a1.5,1.5,0,0,0-1.4-.6,3.35,3.35,0,0,0-3.09,1.47c-1.12,1.75-.72,5.09,1.08,8.74a1.83,1.83,0,0,1-.8,2.46,1.76,1.76,0,0,1-2.36-.74Z"/></g><g id="optimization"><path id="Shape-2" class="cls-14" d="M283.55,109.59v3.17a3.91,3.91,0,0,1-3.25,3.82l-3.07.54a20.69,20.69,0,0,1-1.51,3.64l1.75,2.6a3.94,3.94,0,0,1-.44,5l-2.23,2.26a3.94,3.94,0,0,1-5,.45l-2.58-1.75a19.41,19.41,0,0,1-3.62,1.52l-.56,3a4,4,0,0,1-3.89,3.27H256a4,4,0,0,1-3.89-3.27l-.54-3.06A19.32,19.32,0,0,1,248,129.3l-2.53,1.75a4,4,0,0,1-5-.44l-2.24-2.23a4,4,0,0,1-.44-5l1.75-2.56a21,21,0,0,1-1.5-3.64l-3.08-.56a3.92,3.92,0,0,1-3.32-3.82v-3.17a3.91,3.91,0,0,1,3.25-3.87l3.08-.55a21.68,21.68,0,0,1,1.5-3.63L237.65,99a3.92,3.92,0,0,1,.44-5l2.22-2.24a3.91,3.91,0,0,1,5-.44l2.61,1.75a20.87,20.87,0,0,1,3.63-1.5l.54-3.08A4,4,0,0,1,256,85.14h3.15A3.93,3.93,0,0,1,263,88.46l.54,3.07a21.58,21.58,0,0,1,3.62,1.5l2.55-1.74a3.93,3.93,0,0,1,5,.43L277,93.87a3.89,3.89,0,0,1,.43,5l-1.74,2.56a19.54,19.54,0,0,1,1.5,3.63l3.07.54a3.93,3.93,0,0,1,3.32,4Zm-2.15,0a1.74,1.74,0,0,0-1.48-1.74l-3.73-.65a1.07,1.07,0,0,1-.82-.73,18.69,18.69,0,0,0-1.74-4.39,1,1,0,0,1,0-1.15l2.15-3.11a1.75,1.75,0,0,0-.2-2.29l-2.25-2.29a1.75,1.75,0,0,0-2.27-.21L268,95.18a1,1,0,0,1-1.21,0,19.27,19.27,0,0,0-4.38-1.75,1,1,0,0,1-.79-.85l-.66-3.72a1.76,1.76,0,0,0-1.75-1.49H256a1.75,1.75,0,0,0-1.74,1.49l-.77,4.41a19.27,19.27,0,0,0-5.05,1.91,1,1,0,0,1-1.12,0L244.24,93a1.75,1.75,0,0,0-2.29.21l-2.22,2.22a1.75,1.75,0,0,0-.21,2.29l2.1,3.11a1,1,0,0,1,0,1.15,19.16,19.16,0,0,0-1.75,4.39,1.05,1.05,0,0,1-.85.78l-3.74.67a1.75,1.75,0,0,0-1.49,1.74v3.15a1.76,1.76,0,0,0,1.49,1.75l3.72.66a1.06,1.06,0,0,1,.86.79,18.57,18.57,0,0,0,1.74,4.35,1,1,0,0,1,0,1.18l-2.13,3.15a1.75,1.75,0,0,0,.21,2.29l2.22,2.25a1.74,1.74,0,0,0,2.29.19l3.11-2.15a1.08,1.08,0,0,1,1.15,0,17.74,17.74,0,0,0,4.39,1.75,1.08,1.08,0,0,1,.78.86l.67,3.7A1.75,1.75,0,0,0,256,135h3.15a1.76,1.76,0,0,0,1.75-1.49l.66-3.72a1.05,1.05,0,0,1,.77-.86,18.29,18.29,0,0,0,4.37-1.74,1,1,0,0,1,1.15,0l3.09,2.15a1.75,1.75,0,0,0,2.29-.2l2.24-2.25a1.76,1.76,0,0,0,.22-2.24l-2.15-3.09a1.09,1.09,0,0,1,0-1.2,18.32,18.32,0,0,0,1.75-4.37,1.1,1.1,0,0,1,.86-.79l3.72-.64a1.75,1.75,0,0,0,1.48-1.75Zm-14.19,1.59c.06,7.12-7.63,12.49-15.18,8.13a6.81,6.81,0,0,1-2.42-2.38c-4.46-7.49.79-15.25,7.91-15.3h.1A9.64,9.64,0,0,1,267.21,111.18Zm-2.14,0c0-5.52-6.08-9.6-11.9-6.1a5.14,5.14,0,0,0-1.77,1.79c-4.57,7.79,4.26,15.81,11.92,9.63a4.8,4.8,0,0,0,1.75-3.78Z"/></g></g><g id="Smart_Contracts_Optimization-2" data-name="Smart Contracts Optimization"><g id="Group-2" data-name="Group"><path id="Shape-2-2" data-name="Shape" class="cls-14" d="M148.47,85.82V33.41A10.48,10.48,0,0,0,138,22.93H82.24A10.48,10.48,0,0,0,71.6,33.25V112a10.48,10.48,0,0,0,10.48,10.48h28.06l-2.88,5.24h-25a15.71,15.71,0,0,1-15.88-15.56V33.41A15.72,15.72,0,0,1,82.08,17.69h55.75a15.72,15.72,0,0,1,15.88,15.56V85.82ZM117.23,40.64H81a.15.15,0,0,1-.11,0c-2.49-2.24-.94-5.06,1.27-5.06H118.4a.15.15,0,0,1,.1,0c2.5,2.25.94,5.06-1.27,5.06Zm-6.8,8.86H81a.15.15,0,0,1-.11,0c-2.49-2.24-.94-5.06,1.27-5.06H111.6a.21.21,0,0,1,.11,0c2.49,2.24.94,5.06-1.27,5.06Zm27.14-8.86h-7.95a.15.15,0,0,1-.11,0c-2.49-2.24-.94-5.06,1.28-5.06h7.94a.21.21,0,0,1,.11,0c2.49,2.25.94,5.06-1.27,5.06ZM117.23,82.57h-35c-2.22,0-3.79-2.85-1.23-5.1h36.28c2.23,0,3.79,2.85,1.23,5.1Zm20.34,0h-6.78c-2.23,0-3.79-2.85-1.23-5.1h8c2.22,0,3.79,2.85,1.23,5.1Zm0-33.09h-7.95a.15.15,0,0,1-.11,0c-2.49-2.24-.94-5.06,1.28-5.06h7.94a.21.21,0,0,1,.11,0c2.49,2.25.94,5.06-1.27,5.06ZM117.23,61.36H81a.15.15,0,0,1-.11,0c-2.49-2.24-.94-5.06,1.27-5.06H118.4a.15.15,0,0,1,.1,0c2.5,2.25.94,5.06-1.27,5.06Zm-6.8,8.84H81a.15.15,0,0,1-.11,0c-2.49-2.24-.94-5.06,1.27-5.06h28.25c2.23,0,3.79,2.85,1.24,5.1h-1.24Zm27.14-8.84h-7.95a.15.15,0,0,1-.11,0c-2.49-2.24-.94-5.06,1.28-5.06h7.94a.21.21,0,0,1,.11,0c2.49,2.25.94,5.06-1.27,5.06Zm0,8.84h-7.95a.15.15,0,0,1-.11,0c-2.49-2.24-.93-5.06,1.28-5.06h6.78c2.22,0,3.79,2.85,1.23,5.1h-1.23Zm-55.91,39c-2.39-4.84-2.72-9.33-.93-12.23a7,7,0,0,1,6.19-3.22,5,5,0,0,1,4.38,2.17c1.56,2.27,1.38,5.92.79,9.08,1.52-.92,2.13-.66,2.62-.45A2.13,2.13,0,0,1,96,106.32a7,7,0,0,1,3.65-1.56,2.52,2.52,0,0,1,2.2,1.19,3.62,3.62,0,0,1,.33,2.48h5.6c1.84,1.62.72,3.67-.88,3.67H99.64A1.75,1.75,0,0,1,98,109.44v-.12a27.66,27.66,0,0,0-2.6,2.24,1.81,1.81,0,0,1-3.09-1.35v-.89c-.74.63-1.57,1.42-2.34,2.18a1.75,1.75,0,0,1-2.27.27,1.87,1.87,0,0,1-.72-2.2c1.34-3.64,2.62-9.63,1.27-11.6a1.43,1.43,0,0,0-1.39-.6,3.35,3.35,0,0,0-3.1,1.47c-1.11,1.75-.71,5.08,1.09,8.73a1.84,1.84,0,0,1-.81,2.47,1.74,1.74,0,0,1-2.35-.75Z"/></g><g id="optimization-2" data-name="optimization"><path id="Shape-2-3" data-name="Shape-2" class="cls-14" d="M162,110.28v3.16a3.92,3.92,0,0,1-3.25,3.83l-3.08.54a20.21,20.21,0,0,1-1.5,3.64l1.75,2.6a4,4,0,0,1-.44,5l-2.24,2.25a3.92,3.92,0,0,1-5,.46L145.66,130a20.11,20.11,0,0,1-3.62,1.52l-.56,3a3.94,3.94,0,0,1-3.9,3.26h-3.09a3.93,3.93,0,0,1-3.89-3.26l-.55-3.06a21,21,0,0,1-3.63-1.52l-2.53,1.75a4,4,0,0,1-5-.44l-2.24-2.24a4,4,0,0,1-.44-5l1.75-2.57a19.83,19.83,0,0,1-1.5-3.63l-3.08-.56a3.92,3.92,0,0,1-3.32-3.83v-3.16a3.93,3.93,0,0,1,3.25-3.88l3.08-.54a20.87,20.87,0,0,1,1.5-3.63l-1.75-2.54a3.92,3.92,0,0,1,.44-5l2.22-2.23a3.9,3.9,0,0,1,5-.44l2.61,1.75A20.59,20.59,0,0,1,130,92.23l.54-3.07a4,4,0,0,1,3.93-3.34h3.15a4,4,0,0,1,3.84,3.32l.54,3.08a20.77,20.77,0,0,1,3.62,1.5L148.19,92a3.93,3.93,0,0,1,5,.44l2.24,2.15a3.89,3.89,0,0,1,.43,5l-1.74,2.55a19.92,19.92,0,0,1,1.5,3.64l3.07.54a3.94,3.94,0,0,1,3.32,4Zm-2.15,0a1.76,1.76,0,0,0-1.49-1.75l-3.72-.64a1.08,1.08,0,0,1-.82-.74,18.82,18.82,0,0,0-1.75-4.38,1.08,1.08,0,0,1,0-1.15l2.15-3.11a1.74,1.74,0,0,0-.19-2.29l-2.25-2.29a1.75,1.75,0,0,0-2.27-.21l-3.1,2.15a1.05,1.05,0,0,1-1.2,0,19.35,19.35,0,0,0-4.39-1.75,1,1,0,0,1-.78-.85l-.67-3.73a1.74,1.74,0,0,0-1.74-1.48h-3.15a1.75,1.75,0,0,0-1.75,1.48L132,94a18.59,18.59,0,0,0-5,1.91,1,1,0,0,1-1.12,0l-3.11-2.15a1.75,1.75,0,0,0-2.29.21l-2.22,2.22a1.75,1.75,0,0,0-.21,2.29l2.1,3.11a1.08,1.08,0,0,1,0,1.15,18.82,18.82,0,0,0-1.75,4.38,1.06,1.06,0,0,1-.85.79l-3.74.66a1.76,1.76,0,0,0-1.49,1.75v3.15a1.75,1.75,0,0,0,1.49,1.74l3.72.67a1,1,0,0,1,.85.78,18.87,18.87,0,0,0,1.75,4.35,1,1,0,0,1,0,1.19l-2.13,3.15a1.74,1.74,0,0,0,.21,2.28l2.22,2.26a1.74,1.74,0,0,0,2.29.19l3.11-2.15a1.08,1.08,0,0,1,1.15,0,18.23,18.23,0,0,0,4.38,1.75,1.06,1.06,0,0,1,.79.86l.66,3.7a1.75,1.75,0,0,0,1.75,1.48h3.15a1.74,1.74,0,0,0,1.74-1.48l.67-3.72a1,1,0,0,1,.77-.86,18.09,18.09,0,0,0,4.36-1.75,1.1,1.1,0,0,1,1.16,0l3.09,2.15a1.74,1.74,0,0,0,2.29-.19l2.23-2.25a1.75,1.75,0,0,0,.23-2.24L152,122.25a1.11,1.11,0,0,1,0-1.21,18.09,18.09,0,0,0,1.75-4.36,1.09,1.09,0,0,1,.85-.79l3.73-.65a1.74,1.74,0,0,0,1.48-1.74Zm-14.19,1.59c.05,7.12-7.63,12.49-15.18,8.13a6.81,6.81,0,0,1-2.42-2.38c-4.47-7.49.79-15.25,7.91-15.3h.1A9.64,9.64,0,0,1,145.67,111.87Zm-2.15,0c0-5.53-6.08-9.61-11.89-6.1a5.09,5.09,0,0,0-1.78,1.79c-4.56,7.79,4.27,15.81,11.93,9.63a4.84,4.84,0,0,0,1.75-3.78Z"/></g></g><g id="Smart_Contracts_Optimization-3" data-name="Smart Contracts Optimization"><g id="Group-3" data-name="Group"><path id="Shape-3" data-name="Shape" class="cls-14" d="M397.47,84.82V32.41A10.48,10.48,0,0,0,387,21.93H331.24A10.48,10.48,0,0,0,320.6,32.25V111a10.48,10.48,0,0,0,10.48,10.48h28.06l-2.88,5.24h-25a15.71,15.71,0,0,1-15.88-15.56V32.41a15.72,15.72,0,0,1,15.72-15.72h55.75a15.72,15.72,0,0,1,15.88,15.56V84.82ZM366.23,39.64H330a.15.15,0,0,1-.11,0c-2.49-2.24-.94-5.06,1.27-5.06H367.4a.15.15,0,0,1,.1,0c2.5,2.25.94,5.06-1.27,5.06Zm-6.8,8.86H330a.15.15,0,0,1-.11,0c-2.49-2.24-.94-5.06,1.27-5.06H360.6a.21.21,0,0,1,.11,0c2.49,2.24.94,5.06-1.27,5.06Zm27.14-8.86h-7.95a.15.15,0,0,1-.11,0c-2.49-2.24-.94-5.06,1.28-5.06h7.94a.21.21,0,0,1,.11,0c2.49,2.25.94,5.06-1.27,5.06ZM366.23,81.57H331.18c-2.22,0-3.79-2.85-1.23-5.1h36.28c2.23,0,3.79,2.85,1.23,5.1Zm20.34,0h-6.78c-2.23,0-3.79-2.85-1.23-5.1h8c2.22,0,3.79,2.85,1.23,5.1Zm0-33.09h-7.95a.15.15,0,0,1-.11,0c-2.49-2.24-.94-5.06,1.28-5.06h7.94a.21.21,0,0,1,.11,0c2.49,2.25.94,5.06-1.27,5.06ZM366.23,60.36H330a.15.15,0,0,1-.11,0c-2.49-2.24-.94-5.06,1.27-5.06H367.4a.15.15,0,0,1,.1,0c2.5,2.25.94,5.06-1.27,5.06Zm-6.8,8.84H330a.15.15,0,0,1-.11,0c-2.49-2.24-.94-5.06,1.27-5.06h28.25c2.23,0,3.79,2.85,1.24,5.1h-1.24Zm27.14-8.84h-7.95a.15.15,0,0,1-.11,0c-2.49-2.24-.94-5.06,1.28-5.06h7.94a.21.21,0,0,1,.11,0c2.49,2.25.94,5.06-1.27,5.06Zm0,8.84h-7.95a.15.15,0,0,1-.11,0c-2.49-2.24-.93-5.06,1.28-5.06h6.78c2.22,0,3.79,2.85,1.23,5.1h-1.23Zm-55.91,39c-2.39-4.84-2.72-9.33-.93-12.23a7,7,0,0,1,6.19-3.22,5,5,0,0,1,4.38,2.17c1.56,2.27,1.38,5.92.79,9.08,1.52-.92,2.13-.66,2.62-.45a2.13,2.13,0,0,1,1.28,1.75,7,7,0,0,1,3.65-1.56,2.52,2.52,0,0,1,2.2,1.19,3.62,3.62,0,0,1,.33,2.48h5.6c1.84,1.62.72,3.67-.88,3.67h-7.25a1.75,1.75,0,0,1-1.63-2.66v-.12a27.66,27.66,0,0,0-2.6,2.24,1.81,1.81,0,0,1-3.09-1.35v-.89c-.74.63-1.57,1.42-2.34,2.18a1.75,1.75,0,0,1-2.27.27,1.87,1.87,0,0,1-.72-2.2c1.34-3.64,2.62-9.63,1.27-11.6a1.43,1.43,0,0,0-1.39-.6,3.35,3.35,0,0,0-3.1,1.47c-1.11,1.75-.71,5.08,1.09,8.73a1.84,1.84,0,0,1-.81,2.47,1.74,1.74,0,0,1-2.35-.75Z"/></g><g id="optimization-3" data-name="optimization"><path id="Shape-2-4" data-name="Shape-2" class="cls-14" d="M411,109.28v3.16a3.92,3.92,0,0,1-3.25,3.83l-3.08.54a20.21,20.21,0,0,1-1.5,3.64l1.75,2.6a4,4,0,0,1-.44,5l-2.24,2.25a3.92,3.92,0,0,1-5,.46L394.66,129a20.11,20.11,0,0,1-3.62,1.52l-.56,3a3.94,3.94,0,0,1-3.9,3.26h-3.09a3.93,3.93,0,0,1-3.89-3.26l-.55-3.06a21,21,0,0,1-3.63-1.52l-2.53,1.75a4,4,0,0,1-5-.44l-2.24-2.24a4,4,0,0,1-.44-5l1.75-2.57a19.83,19.83,0,0,1-1.5-3.63l-3.08-.56a3.92,3.92,0,0,1-3.32-3.83v-3.16a3.93,3.93,0,0,1,3.25-3.88l3.08-.54a20.87,20.87,0,0,1,1.5-3.63l-1.75-2.54a3.92,3.92,0,0,1,.44-5l2.22-2.23a3.9,3.9,0,0,1,5-.44l2.61,1.75A20.59,20.59,0,0,1,379,91.23l.54-3.07a4,4,0,0,1,3.93-3.34h3.15a4,4,0,0,1,3.84,3.32l.54,3.08a20.77,20.77,0,0,1,3.62,1.5L397.19,91a3.93,3.93,0,0,1,5,.44l2.24,2.15a3.89,3.89,0,0,1,.43,5l-1.74,2.55a19.92,19.92,0,0,1,1.5,3.64l3.07.54a3.94,3.94,0,0,1,3.32,4Zm-2.15,0a1.76,1.76,0,0,0-1.49-1.75l-3.72-.64a1.08,1.08,0,0,1-.82-.74,18.82,18.82,0,0,0-1.75-4.38,1.08,1.08,0,0,1,0-1.15l2.15-3.11a1.74,1.74,0,0,0-.19-2.29l-2.25-2.29a1.75,1.75,0,0,0-2.27-.21l-3.1,2.15a1.05,1.05,0,0,1-1.2,0,19.35,19.35,0,0,0-4.39-1.75,1,1,0,0,1-.78-.85l-.67-3.73a1.74,1.74,0,0,0-1.74-1.48h-3.15a1.75,1.75,0,0,0-1.75,1.48L381,93a18.59,18.59,0,0,0-5.05,1.91,1,1,0,0,1-1.12,0l-3.11-2.15a1.75,1.75,0,0,0-2.29.21l-2.22,2.22a1.75,1.75,0,0,0-.21,2.29l2.1,3.11a1.08,1.08,0,0,1,0,1.15,18.82,18.82,0,0,0-1.75,4.38,1.06,1.06,0,0,1-.85.79l-3.74.66a1.76,1.76,0,0,0-1.49,1.75v3.15a1.75,1.75,0,0,0,1.49,1.74l3.72.67a1,1,0,0,1,.85.78,18.87,18.87,0,0,0,1.75,4.35,1,1,0,0,1,0,1.19l-2.13,3.15a1.74,1.74,0,0,0,.21,2.28l2.22,2.26a1.74,1.74,0,0,0,2.29.19l3.11-2.15a1.08,1.08,0,0,1,1.15,0,18.23,18.23,0,0,0,4.38,1.75,1.06,1.06,0,0,1,.79.86l.66,3.7a1.75,1.75,0,0,0,1.75,1.48h3.15a1.74,1.74,0,0,0,1.74-1.48l.67-3.72a1,1,0,0,1,.77-.86,18.09,18.09,0,0,0,4.36-1.75,1.1,1.1,0,0,1,1.16,0l3.09,2.15a1.74,1.74,0,0,0,2.29-.19l2.23-2.25a1.75,1.75,0,0,0,.23-2.24L401,121.25a1.11,1.11,0,0,1,0-1.21,18.09,18.09,0,0,0,1.75-4.36,1.09,1.09,0,0,1,.85-.79l3.73-.65a1.74,1.74,0,0,0,1.48-1.74Zm-14.19,1.59c.05,7.12-7.63,12.49-15.18,8.13a6.81,6.81,0,0,1-2.42-2.38c-4.47-7.49.79-15.25,7.91-15.3h.1A9.64,9.64,0,0,1,394.67,110.87Zm-2.15,0c0-5.53-6.08-9.61-11.89-6.1a5.09,5.09,0,0,0-1.78,1.79c-4.56,7.79,4.27,15.81,11.93,9.63a4.84,4.84,0,0,0,1.75-3.78Z"/></g></g><g id="Smart_Contracts_Optimization-4" data-name="Smart Contracts Optimization"><g id="Group-4" data-name="Group"><path id="Shape-4" data-name="Shape" class="cls-14" d="M519.47,82.82V30.41A10.48,10.48,0,0,0,509,19.93H453.24A10.48,10.48,0,0,0,442.6,30.25V109a10.48,10.48,0,0,0,10.48,10.48h28.06l-2.88,5.24h-25a15.71,15.71,0,0,1-15.88-15.56V30.41a15.72,15.72,0,0,1,15.72-15.72h55.75a15.72,15.72,0,0,1,15.88,15.56V82.82ZM488.23,37.64H452a.15.15,0,0,1-.11,0c-2.49-2.24-.94-5.06,1.27-5.06H489.4a.15.15,0,0,1,.1,0c2.5,2.25.94,5.06-1.27,5.06Zm-6.8,8.86H452a.15.15,0,0,1-.11,0c-2.49-2.24-.94-5.06,1.27-5.06H482.6a.21.21,0,0,1,.11,0c2.49,2.24.94,5.06-1.27,5.06Zm27.14-8.86h-7.95a.15.15,0,0,1-.11,0c-2.49-2.24-.94-5.06,1.28-5.06h7.94a.21.21,0,0,1,.11,0c2.49,2.25.94,5.06-1.27,5.06ZM488.23,79.57H453.18c-2.22,0-3.79-2.85-1.23-5.1h36.28c2.23,0,3.79,2.85,1.23,5.1Zm20.34,0h-6.78c-2.23,0-3.79-2.85-1.23-5.1h8c2.22,0,3.79,2.85,1.23,5.1Zm0-33.09h-7.95a.15.15,0,0,1-.11,0c-2.49-2.24-.94-5.06,1.28-5.06h7.94a.21.21,0,0,1,.11,0c2.49,2.25.94,5.06-1.27,5.06ZM488.23,58.36H452a.15.15,0,0,1-.11,0c-2.49-2.24-.94-5.06,1.27-5.06H489.4a.15.15,0,0,1,.1,0c2.5,2.25.94,5.06-1.27,5.06Zm-6.8,8.84H452a.15.15,0,0,1-.11,0c-2.49-2.24-.94-5.06,1.27-5.06h28.25c2.23,0,3.79,2.85,1.24,5.1h-1.24Zm27.14-8.84h-7.95a.15.15,0,0,1-.11,0c-2.49-2.24-.94-5.06,1.28-5.06h7.94a.21.21,0,0,1,.11,0c2.49,2.25.94,5.06-1.27,5.06Zm0,8.84h-7.95a.15.15,0,0,1-.11,0c-2.49-2.24-.93-5.06,1.28-5.06h6.78c2.22,0,3.79,2.85,1.23,5.1h-1.23Zm-55.91,39c-2.39-4.84-2.72-9.33-.93-12.23a7,7,0,0,1,6.19-3.22,5,5,0,0,1,4.38,2.17c1.56,2.27,1.38,5.92.79,9.08,1.52-.92,2.13-.66,2.62-.45a2.13,2.13,0,0,1,1.28,1.75,7,7,0,0,1,3.65-1.56,2.52,2.52,0,0,1,2.2,1.19,3.62,3.62,0,0,1,.33,2.48h5.6c1.84,1.62.72,3.67-.88,3.67h-7.25a1.75,1.75,0,0,1-1.63-2.66v-.12a27.66,27.66,0,0,0-2.6,2.24,1.81,1.81,0,0,1-3.09-1.35v-.89c-.74.63-1.57,1.42-2.34,2.18a1.75,1.75,0,0,1-2.27.27,1.87,1.87,0,0,1-.72-2.2c1.34-3.64,2.62-9.63,1.27-11.6a1.43,1.43,0,0,0-1.39-.6,3.35,3.35,0,0,0-3.1,1.47c-1.11,1.75-.71,5.08,1.09,8.73a1.84,1.84,0,0,1-.81,2.47,1.74,1.74,0,0,1-2.35-.75Z"/></g><g id="optimization-4" data-name="optimization"><path id="Shape-2-5" data-name="Shape-2" class="cls-14" d="M533,107.28v3.16a3.92,3.92,0,0,1-3.25,3.83l-3.08.54a20.21,20.21,0,0,1-1.5,3.64l1.75,2.6a4,4,0,0,1-.44,5l-2.24,2.25a3.92,3.92,0,0,1-5,.46L516.66,127a20.11,20.11,0,0,1-3.62,1.52l-.56,3a3.94,3.94,0,0,1-3.9,3.26h-3.09a3.93,3.93,0,0,1-3.89-3.26l-.55-3.06a21,21,0,0,1-3.63-1.52l-2.53,1.75a4,4,0,0,1-5-.44l-2.24-2.24a4,4,0,0,1-.44-5l1.75-2.57a19.83,19.83,0,0,1-1.5-3.63l-3.08-.56a3.92,3.92,0,0,1-3.32-3.83v-3.16a3.93,3.93,0,0,1,3.25-3.88l3.08-.54a20.87,20.87,0,0,1,1.5-3.63l-1.75-2.54a3.92,3.92,0,0,1,.44-5l2.22-2.23a3.9,3.9,0,0,1,5-.44l2.61,1.75A20.59,20.59,0,0,1,501,89.23l.54-3.07a4,4,0,0,1,3.93-3.34h3.15a4,4,0,0,1,3.84,3.32l.54,3.08a20.77,20.77,0,0,1,3.62,1.5L519.19,89a3.93,3.93,0,0,1,5,.44l2.24,2.15a3.89,3.89,0,0,1,.43,5l-1.74,2.55a19.92,19.92,0,0,1,1.5,3.64l3.07.54a3.94,3.94,0,0,1,3.32,4Zm-2.15,0a1.76,1.76,0,0,0-1.49-1.75l-3.72-.64a1.08,1.08,0,0,1-.82-.74,18.82,18.82,0,0,0-1.75-4.38,1.08,1.08,0,0,1,0-1.15l2.15-3.11a1.74,1.74,0,0,0-.19-2.29l-2.25-2.29a1.75,1.75,0,0,0-2.27-.21l-3.1,2.15a1.05,1.05,0,0,1-1.2,0,19.35,19.35,0,0,0-4.39-1.75,1,1,0,0,1-.78-.85l-.67-3.73a1.74,1.74,0,0,0-1.74-1.48h-3.15a1.75,1.75,0,0,0-1.75,1.48L503,91a18.59,18.59,0,0,0-5.05,1.91,1,1,0,0,1-1.12,0l-3.11-2.15a1.75,1.75,0,0,0-2.29.21l-2.22,2.22a1.75,1.75,0,0,0-.21,2.29l2.1,3.11a1.08,1.08,0,0,1,0,1.15,18.82,18.82,0,0,0-1.75,4.38,1.06,1.06,0,0,1-.85.79l-3.74.66a1.76,1.76,0,0,0-1.49,1.75v3.15a1.75,1.75,0,0,0,1.49,1.74l3.72.67a1,1,0,0,1,.85.78,18.87,18.87,0,0,0,1.75,4.35,1,1,0,0,1,0,1.19l-2.13,3.15a1.74,1.74,0,0,0,.21,2.28l2.22,2.26a1.74,1.74,0,0,0,2.29.19l3.11-2.15a1.08,1.08,0,0,1,1.15,0,18.23,18.23,0,0,0,4.38,1.75,1.06,1.06,0,0,1,.79.86l.66,3.7a1.75,1.75,0,0,0,1.75,1.48h3.15a1.74,1.74,0,0,0,1.74-1.48l.67-3.72a1,1,0,0,1,.77-.86,18.09,18.09,0,0,0,4.36-1.75,1.1,1.1,0,0,1,1.16,0l3.09,2.15a1.74,1.74,0,0,0,2.29-.19l2.23-2.25a1.75,1.75,0,0,0,.23-2.24L523,119.25a1.11,1.11,0,0,1,0-1.21,18.09,18.09,0,0,0,1.75-4.36,1.09,1.09,0,0,1,.85-.79l3.73-.65a1.74,1.74,0,0,0,1.48-1.74Zm-14.19,1.59c.05,7.12-7.63,12.49-15.18,8.13a6.81,6.81,0,0,1-2.42-2.38c-4.47-7.49.79-15.25,7.91-15.3h.1A9.64,9.64,0,0,1,516.67,108.87Zm-2.15,0c0-5.53-6.08-9.61-11.89-6.1a5.09,5.09,0,0,0-1.78,1.79c-4.56,7.79,4.27,15.81,11.93,9.63a4.84,4.84,0,0,0,1.75-3.78Z"/></g></g><g id="Smart_Contracts_Optimization-5" data-name="Smart Contracts Optimization"><g id="Group-5" data-name="Group"><path id="Shape-5" data-name="Shape" class="cls-14" d="M645.47,83.82V31.41A10.48,10.48,0,0,0,635,20.93H579.24A10.48,10.48,0,0,0,568.6,31.25V110a10.48,10.48,0,0,0,10.48,10.48h28.06l-2.88,5.24h-25a15.71,15.71,0,0,1-15.88-15.56V31.41a15.72,15.72,0,0,1,15.72-15.72h55.75a15.72,15.72,0,0,1,15.88,15.56V83.82ZM614.23,38.64H578a.15.15,0,0,1-.11,0c-2.49-2.24-.94-5.06,1.27-5.06H615.4a.15.15,0,0,1,.1,0c2.5,2.25.94,5.06-1.27,5.06Zm-6.8,8.86H578a.15.15,0,0,1-.11,0c-2.49-2.24-.94-5.06,1.27-5.06H608.6a.21.21,0,0,1,.11,0c2.49,2.24.94,5.06-1.27,5.06Zm27.14-8.86h-8a.15.15,0,0,1-.11,0c-2.49-2.24-.94-5.06,1.28-5.06h7.94a.21.21,0,0,1,.11,0c2.49,2.25.94,5.06-1.27,5.06ZM614.23,80.57H579.18c-2.22,0-3.79-2.85-1.23-5.1h36.28c2.23,0,3.79,2.85,1.23,5.1Zm20.34,0h-6.78c-2.23,0-3.79-2.85-1.23-5.1h8c2.22,0,3.79,2.85,1.23,5.1Zm0-33.09h-8a.15.15,0,0,1-.11,0c-2.49-2.24-.94-5.06,1.28-5.06h7.94a.21.21,0,0,1,.11,0c2.49,2.25.94,5.06-1.27,5.06ZM614.23,59.36H578a.15.15,0,0,1-.11,0c-2.49-2.24-.94-5.06,1.27-5.06H615.4a.15.15,0,0,1,.1,0c2.5,2.25.94,5.06-1.27,5.06Zm-6.8,8.84H578a.15.15,0,0,1-.11,0c-2.49-2.24-.94-5.06,1.27-5.06h28.25c2.23,0,3.79,2.85,1.24,5.1h-1.24Zm27.14-8.84h-8a.15.15,0,0,1-.11,0c-2.49-2.24-.94-5.06,1.28-5.06h7.94a.21.21,0,0,1,.11,0c2.49,2.25.94,5.06-1.27,5.06Zm0,8.84h-8a.15.15,0,0,1-.11,0c-2.49-2.24-.93-5.06,1.28-5.06h6.78c2.22,0,3.79,2.85,1.23,5.1h-1.23Zm-55.91,39c-2.39-4.84-2.72-9.33-.93-12.23a7,7,0,0,1,6.19-3.22,5,5,0,0,1,4.38,2.17c1.56,2.27,1.38,5.92.79,9.08,1.52-.92,2.13-.66,2.62-.45a2.13,2.13,0,0,1,1.28,1.75,7,7,0,0,1,3.65-1.56,2.52,2.52,0,0,1,2.2,1.19,3.62,3.62,0,0,1,.33,2.48h5.6c1.84,1.62.72,3.67-.88,3.67h-7.25a1.75,1.75,0,0,1-1.63-2.66v-.12a27.66,27.66,0,0,0-2.6,2.24,1.81,1.81,0,0,1-3.09-1.35v-.89c-.74.63-1.57,1.42-2.34,2.18a1.75,1.75,0,0,1-2.27.27,1.87,1.87,0,0,1-.72-2.2c1.34-3.64,2.62-9.63,1.27-11.6a1.43,1.43,0,0,0-1.39-.6,3.35,3.35,0,0,0-3.1,1.47c-1.11,1.75-.71,5.08,1.09,8.73a1.84,1.84,0,0,1-.81,2.47,1.74,1.74,0,0,1-2.35-.75Z"/></g><g id="optimization-5" data-name="optimization"><path id="Shape-2-6" data-name="Shape-2" class="cls-14" d="M659,108.28v3.16a3.92,3.92,0,0,1-3.25,3.83l-3.08.54a20.21,20.21,0,0,1-1.5,3.64l1.75,2.6a4,4,0,0,1-.44,5l-2.24,2.25a3.92,3.92,0,0,1-5,.46L642.66,128a20.11,20.11,0,0,1-3.62,1.52l-.56,3a3.94,3.94,0,0,1-3.9,3.26h-3.09a3.93,3.93,0,0,1-3.89-3.26l-.55-3.06a21,21,0,0,1-3.63-1.52l-2.53,1.75a4,4,0,0,1-5-.44l-2.24-2.24a4,4,0,0,1-.44-5l1.75-2.57a19.83,19.83,0,0,1-1.5-3.63l-3.08-.56a3.92,3.92,0,0,1-3.32-3.83v-3.16a3.93,3.93,0,0,1,3.25-3.88l3.08-.54a20.87,20.87,0,0,1,1.5-3.63l-1.75-2.54a3.92,3.92,0,0,1,.44-5l2.22-2.23a3.9,3.9,0,0,1,5-.44l2.61,1.75A20.59,20.59,0,0,1,627,90.23l.54-3.07a4,4,0,0,1,3.93-3.34h3.15a4,4,0,0,1,3.84,3.32l.54,3.08a20.77,20.77,0,0,1,3.62,1.5L645.19,90a3.93,3.93,0,0,1,5,.44l2.24,2.15a3.89,3.89,0,0,1,.43,5l-1.74,2.55a19.92,19.92,0,0,1,1.5,3.64l3.07.54a3.94,3.94,0,0,1,3.32,4Zm-2.15,0a1.76,1.76,0,0,0-1.49-1.75l-3.72-.64a1.08,1.08,0,0,1-.82-.74,18.82,18.82,0,0,0-1.75-4.38,1.08,1.08,0,0,1,0-1.15l2.15-3.11a1.74,1.74,0,0,0-.19-2.29l-2.25-2.29a1.75,1.75,0,0,0-2.27-.21l-3.1,2.15a1.05,1.05,0,0,1-1.2,0,19.35,19.35,0,0,0-4.39-1.75,1,1,0,0,1-.78-.85l-.67-3.73a1.74,1.74,0,0,0-1.74-1.48h-3.15a1.75,1.75,0,0,0-1.75,1.48L629,92a18.59,18.59,0,0,0-5.05,1.91,1,1,0,0,1-1.12,0l-3.11-2.15a1.75,1.75,0,0,0-2.29.21l-2.22,2.22a1.75,1.75,0,0,0-.21,2.29l2.1,3.11a1.08,1.08,0,0,1,0,1.15,18.82,18.82,0,0,0-1.75,4.38,1.06,1.06,0,0,1-.85.79l-3.74.66a1.76,1.76,0,0,0-1.49,1.75v3.15a1.75,1.75,0,0,0,1.49,1.74l3.72.67a1,1,0,0,1,.85.78,18.87,18.87,0,0,0,1.75,4.35,1,1,0,0,1,0,1.19l-2.13,3.15a1.74,1.74,0,0,0,.21,2.28l2.22,2.26a1.74,1.74,0,0,0,2.29.19l3.11-2.15a1.08,1.08,0,0,1,1.15,0,18.23,18.23,0,0,0,4.38,1.75,1.06,1.06,0,0,1,.79.86l.66,3.7a1.75,1.75,0,0,0,1.75,1.48h3.15a1.74,1.74,0,0,0,1.74-1.48l.67-3.72a1,1,0,0,1,.77-.86,18.09,18.09,0,0,0,4.36-1.75,1.1,1.1,0,0,1,1.16,0l3.09,2.15a1.74,1.74,0,0,0,2.29-.19l2.23-2.25a1.75,1.75,0,0,0,.23-2.24L649,120.25a1.11,1.11,0,0,1,0-1.21,18.09,18.09,0,0,0,1.75-4.36,1.09,1.09,0,0,1,.85-.79l3.73-.65a1.74,1.74,0,0,0,1.48-1.74Zm-14.19,1.59c.05,7.12-7.63,12.49-15.18,8.13a6.81,6.81,0,0,1-2.42-2.38c-4.47-7.49.79-15.25,7.91-15.3h.1A9.64,9.64,0,0,1,642.67,109.87Zm-2.15,0c0-5.53-6.08-9.61-11.89-6.1a5.09,5.09,0,0,0-1.78,1.79c-4.56,7.79,4.27,15.81,11.93,9.63a4.84,4.84,0,0,0,1.75-3.78Z"/></g></g><g id="Smart_Contracts_Optimization-6" data-name="Smart Contracts Optimization"><g id="Group-6" data-name="Group"><path id="Shape-6" data-name="Shape" class="cls-14" d="M767.47,82.82V30.41A10.48,10.48,0,0,0,757,19.93H701.24A10.48,10.48,0,0,0,690.6,30.25V109a10.48,10.48,0,0,0,10.48,10.48h28.06l-2.88,5.24h-25a15.71,15.71,0,0,1-15.88-15.56V30.41a15.72,15.72,0,0,1,15.72-15.72h55.75a15.72,15.72,0,0,1,15.88,15.56V82.82ZM736.23,37.64H700a.15.15,0,0,1-.11,0c-2.49-2.24-.94-5.06,1.27-5.06H737.4a.15.15,0,0,1,.1,0c2.5,2.25.94,5.06-1.27,5.06Zm-6.8,8.86H700a.15.15,0,0,1-.11,0c-2.49-2.24-.94-5.06,1.27-5.06H730.6a.21.21,0,0,1,.11,0c2.49,2.24.94,5.06-1.27,5.06Zm27.14-8.86h-8a.15.15,0,0,1-.11,0c-2.49-2.24-.94-5.06,1.28-5.06h7.94a.21.21,0,0,1,.11,0c2.49,2.25.94,5.06-1.27,5.06ZM736.23,79.57H701.18c-2.22,0-3.79-2.85-1.23-5.1h36.28c2.23,0,3.79,2.85,1.23,5.1Zm20.34,0h-6.78c-2.23,0-3.79-2.85-1.23-5.1h8c2.22,0,3.79,2.85,1.23,5.1Zm0-33.09h-8a.15.15,0,0,1-.11,0c-2.49-2.24-.94-5.06,1.28-5.06h7.94a.21.21,0,0,1,.11,0c2.49,2.25.94,5.06-1.27,5.06ZM736.23,58.36H700a.15.15,0,0,1-.11,0c-2.49-2.24-.94-5.06,1.27-5.06H737.4a.15.15,0,0,1,.1,0c2.5,2.25.94,5.06-1.27,5.06Zm-6.8,8.84H700a.15.15,0,0,1-.11,0c-2.49-2.24-.94-5.06,1.27-5.06h28.25c2.23,0,3.79,2.85,1.24,5.1h-1.24Zm27.14-8.84h-8a.15.15,0,0,1-.11,0c-2.49-2.24-.94-5.06,1.28-5.06h7.94a.21.21,0,0,1,.11,0c2.49,2.25.94,5.06-1.27,5.06Zm0,8.84h-8a.15.15,0,0,1-.11,0c-2.49-2.24-.93-5.06,1.28-5.06h6.78c2.22,0,3.79,2.85,1.23,5.1h-1.23Zm-55.91,39c-2.39-4.84-2.72-9.33-.93-12.23a7,7,0,0,1,6.19-3.22,5,5,0,0,1,4.38,2.17c1.56,2.27,1.38,5.92.79,9.08,1.52-.92,2.13-.66,2.62-.45a2.13,2.13,0,0,1,1.28,1.75,7,7,0,0,1,3.65-1.56,2.52,2.52,0,0,1,2.2,1.19,3.62,3.62,0,0,1,.33,2.48h5.6c1.84,1.62.72,3.67-.88,3.67h-7.25a1.75,1.75,0,0,1-1.63-2.66v-.12a27.66,27.66,0,0,0-2.6,2.24,1.81,1.81,0,0,1-3.09-1.35v-.89c-.74.63-1.57,1.42-2.34,2.18a1.75,1.75,0,0,1-2.27.27,1.87,1.87,0,0,1-.72-2.2c1.34-3.64,2.62-9.63,1.27-11.6a1.43,1.43,0,0,0-1.39-.6,3.35,3.35,0,0,0-3.1,1.47c-1.11,1.75-.71,5.08,1.09,8.73a1.84,1.84,0,0,1-.81,2.47,1.74,1.74,0,0,1-2.35-.75Z"/></g><g id="optimization-6" data-name="optimization"><path id="Shape-2-7" data-name="Shape-2" class="cls-14" d="M781,107.28v3.16a3.92,3.92,0,0,1-3.25,3.83l-3.08.54a20.21,20.21,0,0,1-1.5,3.64l1.75,2.6a4,4,0,0,1-.44,5l-2.24,2.25a3.92,3.92,0,0,1-5,.46L764.66,127a20.11,20.11,0,0,1-3.62,1.52l-.56,3a3.94,3.94,0,0,1-3.9,3.26h-3.09a3.93,3.93,0,0,1-3.89-3.26l-.55-3.06a21,21,0,0,1-3.63-1.52l-2.53,1.75a4,4,0,0,1-5-.44l-2.24-2.24a4,4,0,0,1-.44-5l1.75-2.57a19.83,19.83,0,0,1-1.5-3.63l-3.08-.56a3.92,3.92,0,0,1-3.32-3.83v-3.16a3.93,3.93,0,0,1,3.25-3.88l3.08-.54a20.87,20.87,0,0,1,1.5-3.63l-1.75-2.54a3.92,3.92,0,0,1,.44-5l2.22-2.23a3.9,3.9,0,0,1,5-.44l2.61,1.75A20.59,20.59,0,0,1,749,89.23l.54-3.07a4,4,0,0,1,3.93-3.34h3.15a4,4,0,0,1,3.84,3.32l.54,3.08a20.77,20.77,0,0,1,3.62,1.5L767.19,89a3.93,3.93,0,0,1,5,.44l2.24,2.15a3.89,3.89,0,0,1,.43,5l-1.74,2.55a19.92,19.92,0,0,1,1.5,3.64l3.07.54a3.94,3.94,0,0,1,3.32,4Zm-2.15,0a1.76,1.76,0,0,0-1.49-1.75l-3.72-.64a1.08,1.08,0,0,1-.82-.74,18.82,18.82,0,0,0-1.75-4.38,1.08,1.08,0,0,1,0-1.15l2.15-3.11a1.74,1.74,0,0,0-.19-2.29l-2.25-2.29a1.75,1.75,0,0,0-2.27-.21l-3.1,2.15a1.05,1.05,0,0,1-1.2,0,19.35,19.35,0,0,0-4.39-1.75,1,1,0,0,1-.78-.85l-.67-3.73a1.74,1.74,0,0,0-1.74-1.48h-3.15a1.75,1.75,0,0,0-1.75,1.48L751,91a18.59,18.59,0,0,0-5.05,1.91,1,1,0,0,1-1.12,0l-3.11-2.15a1.75,1.75,0,0,0-2.29.21l-2.22,2.22a1.75,1.75,0,0,0-.21,2.29l2.1,3.11a1.08,1.08,0,0,1,0,1.15,18.82,18.82,0,0,0-1.75,4.38,1.06,1.06,0,0,1-.85.79l-3.74.66a1.76,1.76,0,0,0-1.49,1.75v3.15a1.75,1.75,0,0,0,1.49,1.74l3.72.67a1,1,0,0,1,.85.78,18.87,18.87,0,0,0,1.75,4.35,1,1,0,0,1,0,1.19l-2.13,3.15a1.74,1.74,0,0,0,.21,2.28l2.22,2.26a1.74,1.74,0,0,0,2.29.19l3.11-2.15a1.08,1.08,0,0,1,1.15,0,18.23,18.23,0,0,0,4.38,1.75,1.06,1.06,0,0,1,.79.86l.66,3.7a1.75,1.75,0,0,0,1.75,1.48h3.15a1.74,1.74,0,0,0,1.74-1.48l.67-3.72a1,1,0,0,1,.77-.86,18.09,18.09,0,0,0,4.36-1.75,1.1,1.1,0,0,1,1.16,0l3.09,2.15a1.74,1.74,0,0,0,2.29-.19l2.23-2.25a1.75,1.75,0,0,0,.23-2.24L771,119.25a1.11,1.11,0,0,1,0-1.21,18.09,18.09,0,0,0,1.75-4.36,1.09,1.09,0,0,1,.85-.79l3.73-.65a1.74,1.74,0,0,0,1.48-1.74Zm-14.19,1.59c.05,7.12-7.63,12.49-15.18,8.13a6.81,6.81,0,0,1-2.42-2.38c-4.47-7.49.79-15.25,7.91-15.3h.1A9.64,9.64,0,0,1,764.67,108.87Zm-2.15,0c0-5.53-6.08-9.61-11.89-6.1a5.09,5.09,0,0,0-1.78,1.79c-4.56,7.79,4.27,15.81,11.93,9.63a4.84,4.84,0,0,0,1.75-3.78Z"/></g></g></svg>