<svg id="Capa_1" data-name="Capa 1" xmlns="http://www.w3.org/2000/svg" xmlns:xlink="http://www.w3.org/1999/xlink" viewBox="0 0 750.23 800"><defs><style>.cls-1{fill:none;}.cls-2{clip-path:url(#clip-path);}.cls-3{fill:#10942a;}.cls-4{fill:#343434;}.cls-5{fill:#8c8c8c;}.cls-6{fill:#3c3c3b;}.cls-7{fill:#141414;}.cls-8{fill:#393939;}.cls-9{fill:#f7931a;}.cls-10{fill:#fff;}.cls-11{fill:#b7b5b1;}.cls-12{fill:#244b81;}</style><clipPath id="clip-path" transform="translate(-10.03 0)"><path class="cls-1" d="M223.25,379.76h30.49v32.69H223.25Zm45.13,61.17h48.78v52.3H268.38Zm105.12-32h77.16v89.56H367.11v-84L329.8,375.87H274.35v-66h61.59v60.21Zm-6.39-127h49.4c44.1,0,84.17,19.32,113.2,50.44s47,74.07,47,121.34-18,90.22-47,121.34-69.09,50.44-113.19,50.44h-49.4V563.68h49.4c28.19,0,53.84-12.39,72.45-32.34A115,115,0,0,0,489,376c-18.61-20-44.26-32.34-72.45-32.34h-49.4Z"/></clipPath></defs><path d="M186.76,453.58a9.36,9.36,0,0,1-7.82-9.39c.18-118.34,96.43-214.58,214.76-214.76a9.34,9.34,0,0,1,9.39,7.82,9.14,9.14,0,0,1-9,10.47c-108.52,0-196.8,88.29-196.8,196.8A9.16,9.16,0,0,1,186.76,453.58Z" transform="translate(-10.03 0)"/><path d="M418,94.92a8.43,8.43,0,0,1-4.15-7.73c.15-7.76-22.14-30-29.91-29.91a8.43,8.43,0,0,1-7.73-4.15C372.33,46.09,377.32,39,384,39c7.83,0,30-22.2,29.83-29.93a8.41,8.41,0,0,1,4.13-7.71c7-3.87,14.17,1.14,14.17,7.8,0,7.83,22.19,30,29.92,29.83a8.41,8.41,0,0,1,7.71,4.13c3.87,7-1.13,14.17-7.79,14.17-7.81,0-29.84,22-29.84,29.84C432.11,93.77,425,98.77,418,94.92ZM405.37,48.13A87.83,87.83,0,0,1,423,65.73a88.14,88.14,0,0,1,17.6-17.6A87.88,87.88,0,0,1,423,30.53,87.57,87.57,0,0,1,405.37,48.13Z" transform="translate(-10.03 0)"/><path d="M100.08,317.73a9.15,9.15,0,0,1-5.49-8.57C94.37,295.88,62.3,263.8,49,263.59a9.15,9.15,0,1,1-.13-18.3c13.17,0,45.36-32.12,45.7-45.49a9.31,9.31,0,0,1,6.31-8.92,9.16,9.16,0,0,1,12,8.71c0,13.18,32.13,45.37,45.5,45.7a9.33,9.33,0,0,1,8.92,6.31,9.17,9.17,0,0,1-8.71,12c-13.25,0-45.71,32.46-45.71,45.7A9.2,9.2,0,0,1,100.08,317.73ZM72.6,254.44a118,118,0,0,1,31.14,31.14,118.06,118.06,0,0,1,31.13-31.14,118.06,118.06,0,0,1-31.13-31.14A118,118,0,0,1,72.6,254.44Z" transform="translate(-10.03 0)"/><path d="M702.11,385.09a8.52,8.52,0,0,1-4.19-7.8c0-3-4.26-11.51-13.84-21.09S666,342.33,663,342.36a8.54,8.54,0,0,1-7.79-4.18c-3.81-7,1.18-14.11,7.83-14.11,3,0,11.51-4.3,21.06-13.84s13.87-18.13,13.84-21.1a8.54,8.54,0,0,1,4.18-7.79c7-3.81,14.11,1.18,14.11,7.83,0,3,4.3,11.51,13.84,21.06s18.13,13.87,21.1,13.84a8.5,8.5,0,0,1,7.78,4.16c3.83,7-1.17,14.13-7.82,14.13-3,0-11.51,4.29-21.06,13.84s-13.84,18.06-13.84,21.06C716.21,383.9,709.13,388.89,702.11,385.09Zm-16.78-51.88a96.15,96.15,0,0,1,21.73,21.73,96.4,96.4,0,0,1,21.74-21.73,96.2,96.2,0,0,1-21.74-21.73A95.75,95.75,0,0,1,685.33,333.21Z" transform="translate(-10.03 0)"/><path d="M585.35,737.36h-5.17l-25.84-87.71c62.19-48.72,101.77-125,100.08-210.36-2.78-141.4-119-255.25-260.48-255.2C250.38,184.14,133.6,301,133.6,444.52c0,83.2,39.21,157.41,100.13,205.13L207.9,737.36h-5.18A28.62,28.62,0,0,0,174.1,766v5.39A28.62,28.62,0,0,0,202.72,800H585.35A28.63,28.63,0,0,0,614,771.37V766A28.66,28.66,0,0,0,585.35,737.36ZM151.89,444.82c-.16-133.75,108.69-242.59,242.43-242.44C527.4,202.53,636,311.15,636.19,444.23,636.35,578,527.51,686.82,393.76,686.67,260.68,686.52,152.05,577.9,151.89,444.82ZM249.45,661a259.91,259.91,0,0,0,289.18,0l22.48,76.33H227ZM595.69,771.38a10.35,10.35,0,0,1-10.33,10.33H202.72a10.34,10.34,0,0,1-10.33-10.33V766a10.34,10.34,0,0,1,10.33-10.33H585.35A10.33,10.33,0,0,1,595.68,766v5.4Z" transform="translate(-10.03 0)"/><g class="cls-2"><rect class="cls-3" x="213.22" y="281.89" width="353.51" height="343.56"/></g><g id="Layer_1"><g id="_1421394342400" data-name=" 1421394342400"><polygon class="cls-4" points="42.55 375.21 41.62 378.37 41.62 470.04 42.55 470.96 85.1 445.81 42.55 375.21"/><polygon class="cls-5" points="42.55 375.21 0 445.81 42.55 470.96 42.55 426.47 42.55 375.21"/><polygon class="cls-6" points="42.55 479.02 42.03 479.66 42.03 512.31 42.55 513.84 85.13 453.88 42.55 479.02"/><polygon class="cls-5" points="42.55 513.84 42.55 479.02 0 453.88 42.55 513.84"/><polygon class="cls-7" points="42.55 470.96 85.1 445.81 42.55 426.47 42.55 470.96"/><polygon class="cls-8" points="0 445.81 42.55 470.96 42.55 426.47 0 445.81"/></g></g><g id="Layer_1-2" data-name="Layer_1"><g id="_1421344023328" data-name=" 1421344023328"><path class="cls-9" d="M652.76,186.87a57.47,57.47,0,1,1-41.87-69.67,57.48,57.48,0,0,1,41.87,69.67Z" transform="translate(-10.03 0)"/><path class="cls-10" d="M622.34,164.77c1.15-7.65-4.68-11.76-12.64-14.5l2.58-10.37L606,138.33l-2.51,10.09c-1.66-.41-3.36-.8-5.06-1.19l2.54-10.15-6.31-1.58-2.58,10.36c-1.37-.31-2.72-.62-4-.94v0l-8.7-2.18-1.68,6.74s4.68,1.07,4.58,1.14c2.56.64,3,2.33,2.94,3.67l-2.94,11.8a5,5,0,0,1,.65.22l-.66-.17-4.13,16.54a2.29,2.29,0,0,1-2.89,1.5c.06.09-4.58-1.15-4.58-1.15l-3.14,7.22,8.21,2.05c1.53.38,3,.78,4.5,1.16l-2.61,10.48,6.3,1.58,2.59-10.37q2.58.69,5,1.3l-2.57,10.32,6.31,1.57,2.61-10.46c10.75,2,18.84,1.22,22.25-8.51,2.74-7.84-.14-12.36-5.8-15.3,4.12-.95,7.23-3.66,8.06-9.26ZM607.93,185c-1.95,7.83-15.14,3.59-19.41,2.53L592,173.64c4.28,1.06,18,3.18,15.95,11.35Zm2-20.33c-1.78,7.13-12.75,3.51-16.32,2.62l3.14-12.6c3.57.89,15,2.55,13.18,10Z" transform="translate(-10.03 0)"/></g></g><g id="Layer_1-3" data-name="Layer_1"><g id="_2091123833488" data-name=" 2091123833488"><path class="cls-11" d="M298.62,125.56c-12.79-74.16-109.62-59.81-111.36,0,5.57,2.89,9.09,4.68,9.09,4.68s-2.94,1.78-9.14,5.7c11.15,72.73,106.33,62.17,111.41-.09-6.06-3.7-9.36-5.66-9.36-5.66S292.12,128.86,298.62,125.56ZM251,151.45l-9.09-15.6-9.22,15.6-7-.49,13.15-22.15L227,109.69l7.13-.62,8.43,14.17,8.42-13.55,6.64.18-11,18.81,12.16,22.63-7.8.18Z" transform="translate(-10.03 0)"/><path class="cls-12" d="M294.12,122.66c-17.33-65.91-96.88-48.08-102.32,0,11.06,6.2,13.55,7.67,13.55,7.67S201.07,133,191.76,139c11.85,63.37,97.64,51.16,102.36-.09-8.64-5.43-13.77-8.6-13.77-8.6S292,123.77,294.12,122.66ZM251,151.49l-9.09-15.59-9.22,15.59-6.95-.49,13.14-22.14L227,109.74l7.13-.63,8.42,14.17L251,109.74l6.64.18-11,18.8,12.16,22.64-7.8.18Z" transform="translate(-10.03 0)"/></g></g></svg>